<svg width="38" height="24" viewBox="0 0 38 24" fill="none" xmlns="http://www.w3.org/2000/svg">
<path d="M25.6665 10.3334C28.4332 10.3334 30.6498 8.10004 30.6498 5.33337C30.6498 2.56671 28.4332 0.333374 25.6665 0.333374C22.8998 0.333374 20.6665 2.56671 20.6665 5.33337C20.6665 8.10004 22.8998 10.3334 25.6665 10.3334ZM12.3332 10.3334C15.0998 10.3334 17.3165 8.10004 17.3165 5.33337C17.3165 2.56671 15.0998 0.333374 12.3332 0.333374C9.5665 0.333374 7.33317 2.56671 7.33317 5.33337C7.33317 8.10004 9.5665 10.3334 12.3332 10.3334ZM12.3332 13.6667C8.44984 13.6667 0.666504 15.6167 0.666504 19.5V23.6667H23.9998V19.5C23.9998 15.6167 16.2165 13.6667 12.3332 13.6667ZM25.6665 13.6667C25.1832 13.6667 24.6332 13.7 24.0498 13.75C25.9832 15.15 27.3332 17.0334 27.3332 19.5V23.6667H37.3332V19.5C37.3332 15.6167 29.5498 13.6667 25.6665 13.6667Z" fill="#B09B84"/>
</svg>
